<svg id="svg" xmlns="http://www.w3.org/2000/svg" xmlns:xlink="http://www.w3.org/1999/xlink" width="400" height="217.8125" viewBox="0, 0, 400,217.8125"><g id="svgg"><path id="path0" d="M160.313 0.232 C 156.413 1.620,156.563 1.515,156.563 2.859 C 156.563 4.525,157.412 5.337,161.563 7.644 C 167.910 11.171,168.554 12.018,168.578 16.875 C 168.614 24.299,166.872 26.845,152.009 41.094 C 142.628 50.088,141.772 50.888,130.938 60.793 C 101.011 88.151,88.798 100.887,77.107 116.931 C 67.980 129.455,57.655 152.616,52.159 172.891 L 51.418 175.625 47.975 175.630 C 36.644 175.648,21.351 181.000,9.097 189.236 C 5.770 191.472,5.573 191.615,3.281 193.467 C -0.874 196.824,-0.896 197.117,3.040 196.619 C 18.010 194.727,24.838 195.212,34.763 198.872 C 40.431 200.963,42.627 201.525,46.349 201.839 C 52.070 202.322,61.213 208.797,66.412 216.047 C 67.912 218.139,68.331 218.196,69.850 216.515 C 74.191 211.710,76.311 199.153,74.187 190.838 C 72.933 185.934,69.558 181.239,65.700 179.036 C 64.044 178.090,63.914 178.576,67.084 173.868 C 83.930 148.849,100.362 134.120,125.938 121.114 C 135.682 116.158,153.946 109.076,163.906 106.389 C 164.938 106.111,166.273 105.750,166.875 105.588 C 167.477 105.425,168.310 105.219,168.728 105.130 C 169.146 105.041,169.579 104.911,169.691 104.842 C 169.803 104.773,171.219 104.420,172.838 104.059 C 174.457 103.697,175.992 103.352,176.250 103.291 C 178.205 102.831,185.143 101.514,186.406 101.363 C 187.266 101.261,188.048 101.130,188.146 101.074 C 188.243 101.018,189.298 100.879,190.490 100.766 C 191.681 100.653,192.729 100.517,192.817 100.463 C 192.906 100.410,194.312 100.270,195.942 100.152 C 197.573 100.035,198.985 99.890,199.081 99.832 C 199.177 99.773,200.232 99.704,201.425 99.679 C 202.618 99.654,206.617 99.507,210.313 99.352 C 228.887 98.572,281.714 98.069,287.772 98.614 C 288.911 98.717,290.336 98.849,290.938 98.909 C 291.539 98.969,292.207 99.028,292.422 99.040 C 293.516 99.103,292.477 99.771,289.453 100.951 C 280.869 104.302,280.212 105.152,279.693 113.594 C 279.198 121.647,278.349 122.987,268.033 131.996 C 261.517 137.686,260.470 139.343,262.578 140.628 C 263.750 141.343,268.179 141.504,270.432 140.913 C 271.140 140.727,272.281 140.432,272.969 140.256 C 276.646 139.316,281.368 137.468,285.781 135.241 C 294.440 130.872,297.678 127.367,303.757 115.781 C 313.481 97.248,315.651 95.245,326.250 95.032 C 329.864 94.959,335.724 95.497,337.813 96.094 C 338.070 96.167,338.773 96.308,339.375 96.407 C 341.106 96.690,343.959 97.417,352.500 99.751 C 356.883 100.949,360.680 101.975,360.938 102.031 C 361.195 102.087,363.330 102.633,365.680 103.244 C 370.192 104.416,370.728 104.538,373.390 105.000 C 374.309 105.159,375.293 105.357,375.577 105.439 C 375.861 105.521,376.586 105.662,377.188 105.752 C 378.702 105.977,381.307 106.864,386.250 108.838 C 394.278 112.045,397.723 111.935,399.542 108.416 C 400.991 105.614,399.876 103.508,393.771 97.519 C 387.429 91.297,387.258 90.985,385.175 81.875 C 381.326 65.039,362.957 46.598,334.785 31.289 C 303.593 14.339,278.295 9.074,245.469 12.701 C 240.835 13.213,239.610 13.361,232.656 14.246 C 218.960 15.990,213.661 15.087,194.375 7.727 C 178.463 1.654,173.345 0.307,165.625 0.158 C 162.961 0.107,160.570 0.140,160.313 0.232 M266.346 21.255 C 282.925 23.600,294.125 29.393,294.125 35.623 C 294.125 42.316,287.300 46.346,281.111 43.306 C 276.679 41.131,274.640 36.875,278.028 36.875 C 279.013 36.875,278.934 36.424,277.810 35.624 C 272.836 32.081,259.097 30.952,255.491 33.788 C 253.544 35.320,254.719 37.686,259.490 41.839 C 265.530 47.097,263.834 47.810,251.719 45.107 C 248.562 44.402,238.344 44.313,234.531 44.956 C 231.466 45.474,224.925 46.774,223.438 47.161 C 218.019 48.572,214.875 49.516,209.063 51.475 C 203.874 53.225,193.058 57.389,188.125 59.536 C 180.777 62.734,177.983 63.982,174.740 65.514 C 172.793 66.435,171.142 67.188,171.071 67.188 C 170.580 67.188,147.808 78.701,137.031 84.398 C 114.840 96.129,112.503 97.332,113.281 96.630 C 113.578 96.362,121.362 90.567,129.531 84.532 C 134.299 81.009,150.880 69.155,154.375 66.770 C 155.836 65.773,158.438 63.972,160.156 62.769 C 168.775 56.734,183.947 46.955,192.283 42.062 C 197.310 39.111,204.512 35.505,210.000 33.193 C 226.255 26.342,237.108 23.073,249.531 21.283 C 252.208 20.897,263.682 20.879,266.346 21.255 M372.370 74.979 C 374.419 75.886,374.588 78.762,372.622 79.255 C 371.273 79.594,366.250 75.524,366.250 74.093 C 366.250 73.683,370.992 74.370,372.370 74.979 " stroke="none" fill="#000000" fill-rule="evenodd"></path></g></svg>
