<?xml version="1.0" encoding="UTF-8" standalone="no"?>
<!-- Created with Inkscape (http://www.inkscape.org/) -->

<svg
   xmlns:dc="http://purl.org/dc/elements/1.1/"
   xmlns:cc="http://creativecommons.org/ns#"
   xmlns:rdf="http://www.w3.org/1999/02/22-rdf-syntax-ns#"
   xmlns:svg="http://www.w3.org/2000/svg"
   xmlns="http://www.w3.org/2000/svg"
   xmlns:sodipodi="http://sodipodi.sourceforge.net/DTD/sodipodi-0.dtd"
   xmlns:inkscape="http://www.inkscape.org/namespaces/inkscape"
   version="1.0"
   width="563.75"
   height="271.25"
   viewBox="0 0 451 217"
   id="svg2"
   inkscape:version="0.48.4 r9939"
   sodipodi:docname="Flag_of_the_Afar_before_2012.svg">
  <sodipodi:namedview
     pagecolor="#ffffff"
     bordercolor="#666666"
     borderopacity="1"
     objecttolerance="10"
     gridtolerance="10"
     guidetolerance="10"
     inkscape:pageopacity="0"
     inkscape:pageshadow="2"
     inkscape:window-width="749"
     inkscape:window-height="480"
     id="namedview28"
     showgrid="false"
     inkscape:zoom="0.66518847"
     inkscape:cx="281.875"
     inkscape:cy="135.625"
     inkscape:window-x="0"
     inkscape:window-y="0"
     inkscape:window-maximized="0"
     inkscape:current-layer="svg2" />
  <defs
     id="defs16" />
  <metadata
     id="metadata4">
    <rdf:RDF>
      <cc:Work
         rdf:about="">
        <dc:format>image/svg+xml</dc:format>
        <dc:type
           rdf:resource="http://purl.org/dc/dcmitype/StillImage" />
        <dc:title />
      </cc:Work>
    </rdf:RDF>
  </metadata>
  <rect
     width="150.336"
     height="217"
     x="150.336"
     y="0"
     id="rect3764-1-7"
     style="fill:#ffffff;fill-opacity:1;stroke:none" />
  <rect
     width="150.336"
     height="217"
     x="300.664"
     y="-4.6448847e-15"
     id="rect3764"
     style="fill:#0f47af;fill-opacity:1;stroke:none" />
  <rect
     width="150.336"
     height="217"
     x="0"
     y="0"
     id="rect3764-1"
     style="fill:#078930;fill-opacity:1;stroke:none" />
  <g
     transform="matrix(1.1759637,0,0,1.1759637,-295.4214,-474.36751)"
     id="g3996"
     style="display:inline">
    <g
       transform="matrix(0.76500482,0,0,0.76500482,-41.793138,-241.37682)"
       id="g3961">
      <path
         d="m 660.65625,923.8125 c -16.16708,12.15921 -29.18905,25.20937 -34.6875,31.03125 -8.84974,9.37032 -26.097,30.75801 -37.75,49.84375 1.8763,0.1854 4.28033,1.0745 6.8125,2.5937 2.13926,1.2836 3.83035,2.6895 4.875,4.0626 3.73232,-10.2146 19.60735,-30.77984 31.625,-47.50005 7.65005,-10.64355 19.61031,-21.50563 34.25,-34.46875 -1.12793,-2.62256 -2.41332,-4.32624 -5.125,-5.5625 z"
         id="path3027"
         style="color:#000000;fill:#ae6c1e;fill-opacity:1;stroke:#666666;stroke-width:0.44463322;stroke-linecap:round;stroke-linejoin:round;stroke-miterlimit:4;stroke-opacity:1;stroke-dasharray:none;stroke-dashoffset:0;marker:none;visibility:visible;display:inline;overflow:visible;enable-background:accumulate" />
      <path
         d="m 660.6532,923.82706 c 10.30832,-7.75285 21.90271,-15.15134 33.6577,-20.10081 -10.24686,9.55717 -19.87057,17.978 -28.54383,25.65799 -1.12793,-2.62256 -2.40219,-4.32092 -5.11387,-5.55718 z"
         id="path3444-8"
         style="color:#000000;fill:#d8e5ea;fill-opacity:1;stroke:#666666;stroke-width:0.44463322;stroke-linecap:round;stroke-linejoin:round;stroke-miterlimit:4;stroke-opacity:1;stroke-dasharray:none;stroke-dashoffset:0;marker:none;visibility:visible;display:inline;overflow:visible;enable-background:accumulate" />
      <path
         d="m 583.14374,1009.7299 c -1.20307,1.9867 2.44981,4.8227 6.05404,6.8599 3.60424,2.0372 7.93449,5.3389 9.61655,3.1693 1.82927,-2.3594 -0.7483,-5.7693 -5.44947,-8.5901 -4.70118,-2.8207 -8.96098,-3.5199 -10.22112,-1.4391 z"
         id="path3446-3"
         style="color:#000000;fill:#d8e5ea;fill-opacity:1;stroke:#666666;stroke-width:0.44463322;stroke-linecap:round;stroke-linejoin:round;stroke-miterlimit:4;stroke-opacity:1;stroke-dasharray:none;stroke-dashoffset:0;marker:none;visibility:visible;display:inline;overflow:visible;enable-background:accumulate" />
      <path
         d="m 587.375,1004.625 c -1.1813,0.033 -2.08995,0.4384 -2.5625,1.2188 -0.48439,0.7998 -0.14487,1.7198 0.625,2.6874 1.98103,-0.1495 4.86908,0.784 7.9375,2.625 2.83827,1.7031 4.86853,3.6346 5.65625,5.4063 0.58607,-0.021 1.06955,-0.2129 1.4375,-0.6875 1.82927,-2.3594 -0.73633,-5.7731 -5.4375,-8.5938 -2.93824,-1.7629 -5.68742,-2.7114 -7.65625,-2.6562 z"
         id="path3448-9"
         style="color:#000000;fill:#ae6c1e;fill-opacity:1;stroke:#666666;stroke-width:0.44463322;stroke-linecap:round;stroke-linejoin:round;stroke-miterlimit:4;stroke-opacity:1;stroke-dasharray:none;stroke-dashoffset:0;marker:none;visibility:visible;display:inline;overflow:visible;enable-background:accumulate" />
      <path
         d="m 225.97175,1022.041 a 7.0471292,7.0471292 0 1 1 -14.09426,0 7.0471292,7.0471292 0 1 1 14.09426,0 z"
         transform="translate(361.17772,11.773459)"
         id="path3450-0"
         style="color:#000000;fill:#d8e5ea;fill-opacity:1;stroke:#666666;stroke-width:0.44463322;stroke-linecap:round;stroke-linejoin:round;stroke-miterlimit:4;stroke-opacity:1;stroke-dasharray:none;stroke-dashoffset:0;marker:none;visibility:visible;display:inline;overflow:visible;enable-background:accumulate" />
      <path
         d="m 586.625,1014.9688 c -1.44534,1.3451 -2.47521,1.9837 -3.84375,2.5312 -0.15435,1.5435 -0.99964,6.7664 -1.65625,9.3438 1.66768,0.2433 3.14441,1.084 4.21875,2.2812 1.6883,-1.9625 5.69263,-5.7864 6.90625,-6.8125 -0.28615,-1.2701 -0.34359,-2.3885 -0.15625,-3.9687 -0.98308,-0.5861 -1.96216,-1.2165 -2.90625,-1.75 -0.88068,-0.4978 -1.74756,-1.0559 -2.5625,-1.625 z"
         id="path3476-1"
         style="color:#000000;fill:#d8e5ea;fill-opacity:1;stroke:#666666;stroke-width:0.44463322;stroke-linecap:round;stroke-linejoin:round;stroke-miterlimit:4;stroke-opacity:1;stroke-dasharray:none;stroke-dashoffset:0;marker:none;visibility:visible;display:inline;overflow:visible;enable-background:accumulate" />
      <path
         d="m 669.43755,926.125 c -1.07351,-2.43327 -2.29875,-4.05577 -4.78125,-5.25"
         id="path3927"
         style="color:#000000;fill:none;stroke:#666666;stroke-width:0.44463322;stroke-linecap:round;stroke-linejoin:round;stroke-miterlimit:4;stroke-opacity:1;stroke-dasharray:none;stroke-dashoffset:0;marker:none;visibility:visible;display:inline;overflow:visible;enable-background:accumulate" />
      <path
         d="m 673.0937,922.87505 c -1.00515,-2.19873 -2.16684,-3.70728 -4.375,-4.84375"
         id="path3929"
         style="color:#000000;fill:none;stroke:#666666;stroke-width:0.44463322;stroke-linecap:round;stroke-linejoin:round;stroke-miterlimit:4;stroke-opacity:1;stroke-dasharray:none;stroke-dashoffset:0;marker:none;visibility:visible;display:inline;overflow:visible;enable-background:accumulate" />
    </g>
    <g
       transform="matrix(-0.76500482,0,0,0.76500482,927.74804,-241.37682)"
       id="g3972">
      <path
         d="m 660.65625,923.8125 c -16.16708,12.15921 -29.18905,25.20937 -34.6875,31.03125 -8.84974,9.37032 -26.097,30.75801 -37.75,49.84375 1.8763,0.1854 4.28033,1.0745 6.8125,2.5937 2.13926,1.2836 3.83035,2.6895 4.875,4.0626 3.73232,-10.2146 19.60735,-30.77984 31.625,-47.50005 7.65005,-10.64355 19.61031,-21.50563 34.25,-34.46875 -1.12793,-2.62256 -2.41332,-4.32624 -5.125,-5.5625 z"
         id="path3974"
         style="color:#000000;fill:#ae6c1e;fill-opacity:1;stroke:#666666;stroke-width:0.44463322;stroke-linecap:round;stroke-linejoin:round;stroke-miterlimit:4;stroke-opacity:1;stroke-dasharray:none;stroke-dashoffset:0;marker:none;visibility:visible;display:inline;overflow:visible;enable-background:accumulate" />
      <path
         d="m 660.6532,923.82706 c 10.30832,-7.75285 21.90271,-15.15134 33.6577,-20.10081 -10.24686,9.55717 -19.87057,17.978 -28.54383,25.65799 -1.12793,-2.62256 -2.40219,-4.32092 -5.11387,-5.55718 z"
         id="path3976"
         style="color:#000000;fill:#d8e5ea;fill-opacity:1;stroke:#666666;stroke-width:0.44463322;stroke-linecap:round;stroke-linejoin:round;stroke-miterlimit:4;stroke-opacity:1;stroke-dasharray:none;stroke-dashoffset:0;marker:none;visibility:visible;display:inline;overflow:visible;enable-background:accumulate" />
      <path
         d="m 583.14374,1009.7299 c -1.20307,1.9867 2.44981,4.8227 6.05404,6.8599 3.60424,2.0372 7.93449,5.3389 9.61655,3.1693 1.82927,-2.3594 -0.7483,-5.7693 -5.44947,-8.5901 -4.70118,-2.8207 -8.96098,-3.5199 -10.22112,-1.4391 z"
         id="path3978"
         style="color:#000000;fill:#d8e5ea;fill-opacity:1;stroke:#666666;stroke-width:0.44463322;stroke-linecap:round;stroke-linejoin:round;stroke-miterlimit:4;stroke-opacity:1;stroke-dasharray:none;stroke-dashoffset:0;marker:none;visibility:visible;display:inline;overflow:visible;enable-background:accumulate" />
      <path
         d="m 587.375,1004.625 c -1.1813,0.033 -2.08995,0.4384 -2.5625,1.2188 -0.48439,0.7998 -0.14487,1.7198 0.625,2.6874 1.98103,-0.1495 4.86908,0.784 7.9375,2.625 2.83827,1.7031 4.86853,3.6346 5.65625,5.4063 0.58607,-0.021 1.06955,-0.2129 1.4375,-0.6875 1.82927,-2.3594 -0.73633,-5.7731 -5.4375,-8.5938 -2.93824,-1.7629 -5.68742,-2.7114 -7.65625,-2.6562 z"
         id="path3980"
         style="color:#000000;fill:#ae6c1e;fill-opacity:1;stroke:#666666;stroke-width:0.44463322;stroke-linecap:round;stroke-linejoin:round;stroke-miterlimit:4;stroke-opacity:1;stroke-dasharray:none;stroke-dashoffset:0;marker:none;visibility:visible;display:inline;overflow:visible;enable-background:accumulate" />
      <path
         d="m 225.97175,1022.041 a 7.0471292,7.0471292 0 1 1 -14.09426,0 7.0471292,7.0471292 0 1 1 14.09426,0 z"
         transform="translate(361.17772,11.773459)"
         id="path3982"
         style="color:#000000;fill:#d8e5ea;fill-opacity:1;stroke:#666666;stroke-width:0.44463322;stroke-linecap:round;stroke-linejoin:round;stroke-miterlimit:4;stroke-opacity:1;stroke-dasharray:none;stroke-dashoffset:0;marker:none;visibility:visible;display:inline;overflow:visible;enable-background:accumulate" />
      <path
         d="m 586.625,1014.9688 c -1.44534,1.3451 -2.47521,1.9837 -3.84375,2.5312 -0.15435,1.5435 -0.99964,6.7664 -1.65625,9.3438 1.66768,0.2433 3.14441,1.084 4.21875,2.2812 1.6883,-1.9625 5.69263,-5.7864 6.90625,-6.8125 -0.28615,-1.2701 -0.34359,-2.3885 -0.15625,-3.9687 -0.98308,-0.5861 -1.96216,-1.2165 -2.90625,-1.75 -0.88068,-0.4978 -1.74756,-1.0559 -2.5625,-1.625 z"
         id="path3986"
         style="color:#000000;fill:#d8e5ea;fill-opacity:1;stroke:#666666;stroke-width:0.44463322;stroke-linecap:round;stroke-linejoin:round;stroke-miterlimit:4;stroke-opacity:1;stroke-dasharray:none;stroke-dashoffset:0;marker:none;visibility:visible;display:inline;overflow:visible;enable-background:accumulate" />
      <path
         d="m 669.43755,926.125 c -1.07351,-2.43327 -2.29875,-4.05577 -4.78125,-5.25"
         id="path3988"
         style="color:#000000;fill:none;stroke:#666666;stroke-width:0.44463322;stroke-linecap:round;stroke-linejoin:round;stroke-miterlimit:4;stroke-opacity:1;stroke-dasharray:none;stroke-dashoffset:0;marker:none;visibility:visible;display:inline;overflow:visible;enable-background:accumulate" />
      <path
         d="m 673.0937,922.87505 c -1.00515,-2.19873 -2.16684,-3.70728 -4.375,-4.84375"
         id="path3990"
         style="color:#000000;fill:none;stroke:#666666;stroke-width:0.44463322;stroke-linecap:round;stroke-linejoin:round;stroke-miterlimit:4;stroke-opacity:1;stroke-dasharray:none;stroke-dashoffset:0;marker:none;visibility:visible;display:inline;overflow:visible;enable-background:accumulate" />
    </g>
  </g>
  <path
     d="m 230.68,45.5313 -10.3464,0.08 -18.0816,-0.29463 14.9608,10.1592 8.4176,6.01656 8.324,-6.146 14.8016,-10.3896 z m -5.3072,-17.2872 -5.03944,17.3672 -3.12128,9.8648 -5.86792,17.1048 14.2856,-11.088 14.4552,10.8656 -6.13152,-17.012 z"
     id="path19-8"
     style="color:#000000;fill:none;stroke:#fcdd09;stroke-width:1.60000002000000000;stroke-linecap:butt;stroke-linejoin:round;stroke-miterlimit:4;stroke-opacity:1;stroke-dasharray:none;stroke-dashoffset:0;enable-background:accumulate" />
</svg>
